<?xml version="1.0" encoding="UTF-8" standalone="no"?>
<!-- Created with Inkscape (http://www.inkscape.org/) -->

<svg
   xmlns:dc="http://purl.org/dc/elements/1.1/"
   xmlns:cc="http://creativecommons.org/ns#"
   xmlns:rdf="http://www.w3.org/1999/02/22-rdf-syntax-ns#"
   xmlns:svg="http://www.w3.org/2000/svg"
   xmlns="http://www.w3.org/2000/svg"
   xmlns:sodipodi="http://sodipodi.sourceforge.net/DTD/sodipodi-0.dtd"
   xmlns:inkscape="http://www.inkscape.org/namespaces/inkscape"
   id="svg6745"
   version="1.1"
   inkscape:version="0.48.0 r9654"
   width="100"
   height="83.10334"
   xml:space="preserve"
   sodipodi:docname="uk_etech2.pdf"><metadata
     id="metadata6751"><rdf:RDF><cc:Work
         rdf:about=""><dc:format>image/svg+xml</dc:format><dc:type
           rdf:resource="http://purl.org/dc/dcmitype/StillImage" /><dc:title></dc:title></cc:Work></rdf:RDF></metadata><defs
     id="defs6749"><clipPath
       clipPathUnits="userSpaceOnUse"
       id="clipPath6759"><path
         d="m 623.622,0 623.623,0 0,807.874 -623.623,0 0,-807.874 z"
         id="path6761"
         inkscape:connector-curvature="0" /></clipPath><clipPath
       clipPathUnits="userSpaceOnUse"
       id="clipPath6773"><path
         d="m 0,0 1247.244,0 0,807.874 L 0,807.874 0,0 z"
         id="path6775"
         inkscape:connector-curvature="0" /></clipPath><clipPath
       clipPathUnits="userSpaceOnUse"
       id="clipPath6797"><path
         d="m 0,0 623.622,0 0,807.874 L 0,807.874 0,0 z"
         id="path6799"
         inkscape:connector-curvature="0" /></clipPath><clipPath
       clipPathUnits="userSpaceOnUse"
       id="clipPath6811"><path
         d="m 0,0 1247.244,0 0,807.874 L 0,807.874 0,0 z"
         id="path6813"
         inkscape:connector-curvature="0" /></clipPath><clipPath
       clipPathUnits="userSpaceOnUse"
       id="clipPath6847"><path
         d="m 28.346,52.96 140.865,0 0,37.182 -140.865,0 0,-37.182 z"
         id="path6849"
         inkscape:connector-curvature="0" /></clipPath><linearGradient
       x1="0"
       y1="0"
       x2="1"
       y2="0"
       gradientUnits="userSpaceOnUse"
       gradientTransform="matrix(17.203537,0,0,-17.203537,28.346481,88.697693)"
       spreadMethod="pad"
       id="linearGradient6921"><stop
         style="stop-opacity:1;stop-color:#009dd0"
         offset="0"
         id="stop6923" /><stop
         style="stop-opacity:1;stop-color:#005380"
         offset="1"
         id="stop6925" /></linearGradient><linearGradient
       x1="0"
       y1="0"
       x2="1"
       y2="0"
       gradientUnits="userSpaceOnUse"
       gradientTransform="matrix(7.9347839,0,0,-7.9347839,30.981842,82.922623)"
       spreadMethod="pad"
       id="linearGradient6941"><stop
         style="stop-opacity:1;stop-color:#009dd0"
         offset="0"
         id="stop6943" /><stop
         style="stop-opacity:1;stop-color:#005380"
         offset="1"
         id="stop6945" /></linearGradient><linearGradient
       x1="0"
       y1="0"
       x2="1"
       y2="0"
       gradientUnits="userSpaceOnUse"
       gradientTransform="matrix(7.8651733,0,0,-7.8651733,28.839767,77.147354)"
       spreadMethod="pad"
       id="linearGradient6961"><stop
         style="stop-opacity:1;stop-color:#009dd0"
         offset="0"
         id="stop6963" /><stop
         style="stop-opacity:1;stop-color:#005380"
         offset="1"
         id="stop6965" /></linearGradient><linearGradient
       x1="0"
       y1="0"
       x2="1"
       y2="0"
       gradientUnits="userSpaceOnUse"
       gradientTransform="matrix(11.61087,0,0,-11.61087,36.113892,85.810059)"
       spreadMethod="pad"
       id="linearGradient6981"><stop
         style="stop-opacity:1;stop-color:#f08826"
         offset="0"
         id="stop6983" /><stop
         style="stop-opacity:1;stop-color:#fbc14e"
         offset="1"
         id="stop6985" /></linearGradient><linearGradient
       x1="0"
       y1="0"
       x2="1"
       y2="0"
       gradientUnits="userSpaceOnUse"
       gradientTransform="matrix(11.610321,0,0,-11.610321,33.972,80.03479)"
       spreadMethod="pad"
       id="linearGradient7001"><stop
         style="stop-opacity:1;stop-color:#f08826"
         offset="0"
         id="stop7003" /><stop
         style="stop-opacity:1;stop-color:#fbc14e"
         offset="1"
         id="stop7005" /></linearGradient><linearGradient
       x1="0"
       y1="0"
       x2="1"
       y2="0"
       gradientUnits="userSpaceOnUse"
       gradientTransform="matrix(11.61116,0,0,-11.61116,31.829926,74.259308)"
       spreadMethod="pad"
       id="linearGradient7021"><stop
         style="stop-opacity:1;stop-color:#f08826"
         offset="0"
         id="stop7023" /><stop
         style="stop-opacity:1;stop-color:#fbc14e"
         offset="1"
         id="stop7025" /></linearGradient><clipPath
       clipPathUnits="userSpaceOnUse"
       id="clipPath7033"><path
         d="m 28.346,52.96 140.865,0 0,37.182 -140.865,0 0,-37.182 z"
         id="path7035"
         inkscape:connector-curvature="0" /></clipPath><clipPath
       clipPathUnits="userSpaceOnUse"
       id="clipPath7123"><path
         d="m 0,0 1247.244,0 0,807.874 L 0,807.874 0,0 z"
         id="path7125"
         inkscape:connector-curvature="0" /></clipPath><clipPath
       clipPathUnits="userSpaceOnUse"
       id="clipPath7143"><path
         d="m 0,0 1247.244,0 0,807.874 L 0,807.874 0,0 z"
         id="path7145"
         inkscape:connector-curvature="0" /></clipPath><clipPath
       clipPathUnits="userSpaceOnUse"
       id="clipPath6773-4"><path
         inkscape:connector-curvature="0"
         d="m 0,0 1247.244,0 0,807.874 L 0,807.874 0,0 z"
         id="path6775-0" /></clipPath></defs><sodipodi:namedview
     pagecolor="#ffffff"
     bordercolor="#666666"
     borderopacity="1"
     objecttolerance="10"
     gridtolerance="10"
     guidetolerance="10"
     inkscape:pageopacity="0"
     inkscape:pageshadow="2"
     inkscape:window-width="1350"
     inkscape:window-height="878"
     id="namedview6747"
     showgrid="false"
     fit-margin-top="0"
     fit-margin-left="0"
     fit-margin-right="0"
     fit-margin-bottom="0"
     inkscape:zoom="4.4680233"
     inkscape:cx="29.254533"
     inkscape:cy="55.62506"
     inkscape:window-x="89"
     inkscape:window-y="0"
     inkscape:window-maximized="1"
     inkscape:current-layer="g6753" /><g
     id="g6753"
     inkscape:groupmode="layer"
     inkscape:label="uk_etech2"
     transform="matrix(1.25,0,0,-1.25,-956.99959,698.63753)"><g
       transform="matrix(1.1475786,0,0,1.1475786,-556.73621,463.48932)"
       id="g6769"><g
         id="g6771"
         clip-path="url(#clipPath6773-4)"><g
           id="g6777"
           transform="translate(1159.6295,83.1496)"><path
             inkscape:connector-curvature="0"
             d="m 0,0 55.298,0 c 4.019,0 7.068,-3.188 7.068,-7.068 l 0,-43.658 c 0,-3.603 -2.909,-7.207 -7.068,-7.207 l -55.577,0 c -3.463,0 -7.067,3.049 -7.067,7.207 l 0,43.519 C -7.346,-3.188 -4.713,0 0,0"
             style="fill:#ffffff;fill-opacity:1;fill-rule:nonzero;stroke:none"
             id="path6779" /></g><g
           id="g6781"
           transform="translate(1214.7897,28.5245)"><path
             inkscape:connector-curvature="0"
             d="m 0,0 c 2.193,0 3.97,1.776 3.97,3.968 l 0,43.519 c 0,2.193 -1.777,3.968 -3.97,3.968 l -55.16,0 c -2.193,0 -3.97,-1.775 -3.97,-3.968 l 0,-43.519 C -59.13,1.776 -57.353,0 -55.16,0 L 0,0 z"
             style="fill:#e2001a;fill-opacity:1;fill-rule:nonzero;stroke:none"
             id="path6783" /></g><g
           id="g6785"
           transform="translate(1217.5343,76.0118)"><path
             inkscape:connector-curvature="0"
             d="m 0,0 c 0,1.516 -1.228,2.744 -2.745,2.744 l -55.16,0 C -59.42,2.744 -60.65,1.516 -60.65,0 l 0,-43.52 c 0,-1.515 1.23,-2.743 2.745,-2.743 l 55.16,0 c 1.517,0 2.745,1.228 2.745,2.743 L 0,0 z"
             style="fill:#ffffff;fill-opacity:1;fill-rule:nonzero;stroke:none"
             id="path6787" /></g><g
           id="g6789"
           transform="translate(1201.5529,65.4122)"><path
             inkscape:connector-curvature="0"
             d="m 0,0 10.748,-0.008 c 1.523,0 2.008,1.247 2.008,2.219 0,0.257 10e-4,5.065 10e-4,5.681 0,0.972 -0.486,2.219 -2.009,2.219 l -18.786,0.007 c -2.495,0 -3.95,-1.871 -3.95,-3.88 0,-1.031 10e-4,-16.366 10e-4,-17.431 0,-2.564 2.217,-4.505 4.989,-4.78 l 7.552,-0.348 c 1.665,-0.069 2.218,-0.97 2.218,-2.079 L 2.77,-20.202 c -0.044,-1.186 -0.871,-1.906 -2.353,-1.906 l -12.474,0 c -1.732,0 -2.009,0.83 -2.288,1.593 l -1.523,4.089 c -0.277,0.831 -1.109,1.594 -2.079,1.663 -1.316,0.207 -1.663,0.346 -1.663,0.969 0,0.833 0.415,0.902 1.524,1.04 1.941,0.208 3.465,1.732 3.465,3.811 l 0,15.177 c 0,2.01 -1.455,3.881 -3.95,3.881 l -20.651,0 c -1.525,0 -2.217,-0.763 -2.217,-2.219 l 0,-38.113 c 0,-1.524 1.246,-2.009 2.217,-2.009 0.257,0 5.066,-10e-4 5.683,-10e-4 0.97,0 2.217,0.486 2.217,2.01 l 0,30.007 4.712,0 c 1.318,0 2.148,-0.693 2.148,-1.941 l 0,-4.365 c 0,-1.18 -0.552,-2.288 -1.87,-2.288 l -1.387,0 c -1.592,0 -2.285,-0.624 -2.285,-2.01 l 0,-5.335 c 0,-1.386 0.9,-2.01 2.147,-2.01 2.079,0 2.357,-0.693 2.703,-1.94 l 2.495,-10.186 c 0.416,-1.664 1.316,-1.942 2.772,-1.942 l 28.689,10e-4 c 2.495,0 3.95,1.872 3.95,3.879 l 0,17.363 c 0,2.286 -1.871,4.572 -4.296,4.711 l -7.971,0.485 c -1.662,0.069 -2.564,0.762 -2.564,1.802 l 0,2.115 C -2.079,-0.9 -1.454,0 0,0"
             style="fill:#e2001a;fill-opacity:1;fill-rule:nonzero;stroke:none"
             id="path6791" /></g></g></g></g></svg>